<svg xmlns="http://www.w3.org/2000/svg" width="574.416" height="60.53" viewBox="0 0 574.416 60.53">
  <g id="Group_1" data-name="Group 1" transform="translate(-672.792 -609.442)">
    <path id="Path_1" data-name="Path 1" d="M672.792,669.108v-58.8h45.571v7.956h-37.01v16.516h30.7v7.955h-30.7v18.418h37.01v7.956Z" fill="#212121"/>
    <path id="Path_2" data-name="Path 2" d="M751.912,610.307h10.376l23.348,58.8h-9.08l-5.188-12.971H742.054l-5.361,12.971h-9.166Zm-7.523,39h24.644L757.1,619.3Z" fill="#212121"/>
    <path id="Path_3" data-name="Path 3" d="M817.629,618.263v50.845h-8.994V618.263h-21.1v-7.956H837.69v7.956Z" fill="#212121"/>
    <path id="Path_4" data-name="Path 4" d="M890.09,643.945l-10.636,25.163H866.31l-22.741-58.8h13.057l17.294,45.225,10.9-25.942-7.263-19.283H890.7l15.737,43.236,16.949-43.236h13.23l-23.434,58.8H900.034Z" fill="#212121"/>
    <path id="Path_5" data-name="Path 5" d="M948.368,610.307h12.106v58.8H948.368Z" fill="#212121"/>
    <path id="Path_6" data-name="Path 6" d="M989.7,643.08c-8.907-2.335-13.49-7.783-13.49-15.738,0-9.771,7.35-17.813,23.521-17.813,8.474,0,16.6,2.248,21.1,4.669l-3.459,11.328c-4.324-2.767-11.674-4.929-18.073-4.929-7.436,0-10.549,2.335-10.549,5.708,0,3.2,2.161,4.5,6.4,5.707l10.9,3.112c10.636,3.027,15.824,7.869,15.824,16.257,0,11.069-9.771,18.591-23.952,18.591a46.713,46.713,0,0,1-20.754-5.1l2.854-11.5a34.994,34.994,0,0,0,18.159,5.534c7.091,0,11.068-2.681,11.068-6.572,0-3.2-3.112-4.756-8.387-6.226Z" fill="#212121"/>
    <path id="Path_7" data-name="Path 7" d="M1037.432,610.307h25.336c17.381.086,30.352,10.377,30.352,29.487,0,18.937-12.971,29.314-30.352,29.314h-25.336Zm12.107,10.55v37.7h12.711c10.808,0,18.332-6.658,18.332-18.764,0-12.279-7.524-18.937-18.332-18.937Z" fill="#212121"/>
    <path id="Path_8" data-name="Path 8" d="M1135.488,609.442c17.381,0,30.352,12.971,30.352,30.352,0,17.208-12.971,30.178-30.352,30.178-17.208,0-30.179-12.97-30.179-30.178C1105.309,622.413,1118.28,609.442,1135.488,609.442Zm.087,49.2c10.809,0,18.332-8.215,18.332-18.851,0-10.809-7.523-18.851-18.332-18.851-10.637,0-18.332,8.042-18.332,18.851C1117.243,650.43,1124.938,658.645,1135.575,658.645Z" fill="#212121"/>
    <path id="Path_9" data-name="Path 9" d="M1235.1,629.417l-19.715,23.694h-2.162l-19.629-23.694v39.691h-12.106v-58.8h10.9l21.963,26.2,21.964-26.2h10.9v58.8H1235.1Z" fill="#212121"/>
  </g>
</svg>
